<svg xmlns="http://www.w3.org/2000/svg" viewBox="0 0 665 133"><g style="isolation:isolate"><g style="mix-blend-mode:multiply"><path d="M66.46,131l-22.37-41a4,4,0,0,0-6.63-.6L27.32,102A12.07,12.07,0,0,0,26,104.53v24.53c.42,2.21-1.37,3-2.59,3.94H4.89C1,133,0,130,0,129.06V28c-.12-2.22,1.67-4,4.88-4H23.42c1.22,0,3,1.79,2.59,4V59c.42,3.85,5.31,5.48,7.61,2.44L60.68,25.62A4,4,0,0,1,63.89,24H82.78A4,4,0,0,1,86,30.4L61,63.9a4,4,0,0,0-.33,4.28l31.43,59C93.55,129.84,93,133,89,133H70a4,4,0,0,1-3.18-1.57Z" style="fill:#2babe2"/><path d="M139.26,24h20.8a4,4,0,0,1,3.77,2.67l35.77,101a4,4,0,0,1-3.77,5.34H178.76a4,4,0,0,1-3.78-2.7l-6.08-17.6a4,4,0,0,0-3.79-2.7H134.56a4,4,0,0,0-3.78,2.68l-6.21,17.64a4,4,0,0,1-3.78,2.68H103.56a4,4,0,0,1-3.78-5.34l35.7-101A4,4,0,0,1,139.26,24Zm21.35,58.77-7.05-22a4,4,0,0,0-7.63,0l-7.13,22A4,4,0,0,0,142.61,88H156.8A4,4,0,0,0,160.61,82.77Z" style="fill:#2babe2"/><path d="M235,92v37a4,4,0,0,1-4,4H213a4,4,0,0,1-4-4V28a4,4,0,0,1,4-4h18a4,4,0,0,1,4,4V63a4,4,0,0,0,4,4h34a4,4,0,0,0,4-4V28a4,4,0,0,1,4-4h17a4,4,0,0,1,4,4V129a4,4,0,0,1-4,4H281a4,4,0,0,1-4-4V92a4,4,0,0,0-4-4H239A4,4,0,0,0,235,92Z" style="fill:#2babe2"/><path d="M344,28v80a4,4,0,0,0,4,4h37a4,4,0,0,1,4,4v13a4,4,0,0,1-4,4H322a4,4,0,0,1-4-4l.07-101a4,4,0,0,1,4-4H340A4,4,0,0,1,344,28Z" style="fill:#2babe2"/><path d="M402,24h69a4,4,0,0,1,4,4l-.09,13a4,4,0,0,1-4,4H427a4,4,0,0,0-4,4V64a4,4,0,0,0,4,4h36a4,4,0,0,1,4,4V85a4,4,0,0,1-4,4H428a4,4,0,0,0-4,4v15a4,4,0,0,0,4,4l44,.06a4,4,0,0,1,4,4V129a4,4,0,0,1-4,4H402a4,4,0,0,1-4-4V28A4,4,0,0,1,402,24Z" style="fill:#2babe2"/><path d="M547.46,130.55l-14.74-35.1A4,4,0,0,0,529,93H517a4,4,0,0,0-4,4v32a4,4,0,0,1-4,4H491a4,4,0,0,1-4-4V28a4,4,0,0,1,4-4h44.26c27.52,0,35.81,14.4,35.81,33.85,0,15.3-3.58,23.79-12.42,29.45a4,4,0,0,0-1.48,5l15.86,35a4,4,0,0,1-3.65,5.66H551.16A4,4,0,0,1,547.46,130.55Zm.32-72.28A15.08,15.08,0,0,0,532.37,43H517a4,4,0,0,0-4,4V70a4,4,0,0,0,4,4h14.6C541.33,74,547.78,66.9,547.78,58.27Z" style="fill:#2babe2"/><path d="M580,24h81a4,4,0,0,1,4,4V43a4,4,0,0,1-4,4H638a4,4,0,0,0-4,4v78a4,4,0,0,1-4,4H612a4,4,0,0,1-4-4V51a4,4,0,0,0-4-4H580a4,4,0,0,1-4-4V28A4,4,0,0,1,580,24Z" style="fill:#2babe2"/></g><g style="mix-blend-mode:multiply"><path d="M0,28.2A4.28,4.28,0,0,1,4.21,24h37.1C70.7,24,84.05,34.18,84.05,52.72c0,8.78-3.21,15.57-12.4,21.28A3,3,0,0,0,72,79.28c12.89,5.9,14.56,16.1,14.56,24.1C86.59,123.58,74,133,43.41,133H4.21A4.2,4.2,0,0,1,0,128.8ZM45.35,68c7.86,0,14.16-4.1,14.16-11.7,0-7.83-6.6-12.3-15.34-12.3h-14A4.2,4.2,0,0,0,26,48.2V63.8a4.2,4.2,0,0,0,4.2,4.2Zm-.41,46c11,0,16.66-5.74,16.66-13.15,0-8-6.54-12.85-15.74-12.85H30.21A4.2,4.2,0,0,0,26,92.2v17.6a4.2,4.2,0,0,0,4.2,4.2Z" style="fill:#c21f73"/><path d="M108,133a112.37,112.37,0,0,1-15.66-.8c-1.94-.31-3.36-1-3.34-3L89.15,114a4,4,0,0,1,4.64-3.89,35.47,35.47,0,0,0,5.56.5c10,0,12.66-5,12.66-16.74V28a4,4,0,0,1,4-4h18a4,4,0,0,1,4,4V100.6C138,123.14,125,133,108,133Z" style="fill:#c21f73"/><path d="M148,78.78C148,44.33,167,24,198,24c30.81,0,50.32,20.33,50.32,54.78C248.33,112.93,229.2,133,198,133,166.51,133,148,113.08,148,78.78Zm73.61.38c0-25.71-9.38-33.81-23.25-33.81S175,53.45,175,79.16c0,25.1,9.52,32.6,23.39,32.6S221.59,104.26,221.59,79.16Z" style="fill:#c21f73"/><path d="M320.47,130.56,305.72,95.44A4,4,0,0,0,302,93H290a4,4,0,0,0-4,4v32a4,4,0,0,1-4,4H264a4,4,0,0,1-4-4V28a4,4,0,0,1,4-4h44.28c27.52,0,35.81,14.4,35.81,33.85,0,15.31-3.59,23.8-12.44,29.47a4,4,0,0,0-1.47,5l15.89,35.07a4,4,0,0,1-3.63,5.63H324.14A4,4,0,0,1,320.47,130.56Zm.31-72.29A15.08,15.08,0,0,0,305.37,43H290a4,4,0,0,0-4,4V70a4,4,0,0,0,4,4h14.62C314.33,74,320.78,66.9,320.78,58.27Z" style="fill:#c21f73"/><path d="M456,28V129a4,4,0,0,1-4,4H436.25a4,4,0,0,1-3.25-1.69l-40.75-58A4,4,0,0,0,385,75.64V129a4,4,0,0,1-4,4H363a4,4,0,0,1-4-4V28a4,4,0,0,1,4-4h20.9a4,4,0,0,1,3.3,1.75l36.53,54A4,4,0,0,0,431,77.5V28a4,4,0,0,1,4-4h17A4,4,0,0,1,456,28Z" style="fill:#c21f73"/></g><g style="mix-blend-mode:multiply"><path d="M171.12,0H187a4,4,0,0,1,4,4l-.19,12a4,4,0,0,1-4,3.92H171a4,4,0,0,1-4-4l.14-12A4,4,0,0,1,171.12,0Z" style="fill:#c21f73"/><path d="M209.12,0H225a4,4,0,0,1,4,4l-.19,12a4,4,0,0,1-4,3.92H209a4,4,0,0,1-4-4l.14-12A4,4,0,0,1,209.12,0Z" style="fill:#c21f73"/></g></g></svg>