<svg xmlns="http://www.w3.org/2000/svg" viewBox="7 10 115 109"><g style="isolation:isolate"><g style="mix-blend-mode:multiply"><path d="M7,14a3.93,3.93,0,0,1,4.21-4H48.4C78,10,90.9,21,90.23,39.54,90,46,86,52,78,57c-1.82,1.21-5,4,.63,7.91,12,8.36,15.16,16.27,15.16,24.4,0,20.25-12.63,29.69-43.28,29.69H11.2A4.2,4.2,0,0,1,7,114.8ZM52.35,54C60.2,54,67,49.6,67,42c0-7.83-7.09-12-15.84-12h-14A4.2,4.2,0,0,0,33,34.2V49.8A4.2,4.2,0,0,0,37.2,54Zm-.41,46C68.22,100,70,94.42,70,87a7.4,7.4,0,0,0-.2-2.32C68.64,82.84,65.17,77.82,64,76a3.77,3.77,0,0,0-3.15-2H37.2A4.2,4.2,0,0,0,33,78.2V95.8a4.2,4.2,0,0,0,4.2,4.2Z" style="fill:#c21f73"/></g><path d="M46,119l-21.11,0c-3.21.07.11-.06-4.89,0V10H46V44.67c.43,3.91,5.31,5.58,7.61,2.48L83.67,11.63C85,9.92,86.63,10,87.89,10h22.89c3.29,0,5.18,2.81,3.21,5.5L84,52.68C83.08,54,82,56,84,59l37.12,55.08c1.42,2.72.88,4.94-3.54,4.92H95c-2,0-2,0-3.52-2.06L64.08,76.19C63,74,60,73,57.45,75.57L47,88.31A4.14,4.14,0,0,0,46,90.94C46,97,46,118,46,119" style="fill:#2cace3;mix-blend-mode:multiply"/></g></svg>